<svg id="Layer_1" data-name="Layer 1" xmlns="http://www.w3.org/2000/svg" viewBox="0 0 1900 880"><defs><style>.cls-1{opacity:0.2;}.cls-2,.cls-8{fill:#627935;}.cls-3,.cls-4,.cls-9{fill:#91a23a;}.cls-3{stroke:#627935;stroke-miterlimit:10;}.cls-5{fill:#d5da9a;}.cls-6{fill:#6b844a;}.cls-7{fill:#afbd4b;}.cls-8{font-size:113.12px;font-family:AnandaAkchyar-Bold, Ananda Akchyar;font-weight:700;}.cls-9{font-size:46.26px;font-family:Algerian;}.cls-10{font-family:BeautyMountainsPersonalUse, Beauty Mountains Personal Use;}</style></defs><title>ketalinewlogo</title><g class="cls-1"><path class="cls-2" d="M926.55,462.35c-27.16,7.19-49.16,29.78-59.82,57.38s-10.6,59.64-2.78,89.16c2,7.52,7.66,16.78,14.34,14.16,3-1.2,4.71-4.56,6.14-7.68q29.64-64.82,59.3-129.64c20,46.27,68.9,68.61,113.17,86.83s93.1,41.21,112.28,87.86c4.34,10.55,6.89,22.15,5.54,33.34-3,24.47-24.91,42.13-47.87,44s-46-9.47-64.36-25.39c-32.11-27.82-53-75.63-39.37-115.79-13.12,24.06-15.84,54.71-7.25,82-40.29-39.63-68.46-93.3-78.78-150.08,3.25,93.56,58,185.39,136.73,229.21-32.77,13.64-68.45,21.38-104,17.16s-71.15-21.24-95.15-50.69c-12.87-15.8-22.11-34.6-34.6-50.75-17.44-22.55-40.39-38.69-64.69-51.18-22.7-11.66-53.57-15.85-73.63-30.76C714.29,569.25,742.57,556,766,550.93c8.1-1.75,77.2-5.08,77.48,10.32C842.57,511.55,880.56,466.32,926.55,462.35Z"/><path class="cls-3" d="M880,444.63c-1-8.38,9.73-22.17,18.56-31.85A145.79,145.79,0,0,1,961.28,372c-6.7-.67-13.65-1.42-19.62-5s-10.69-10.84-9.44-17.86c.71-4,3.19-7.3,5.84-10.15a61,61,0,0,1,65.06-15.46c5.16,1.89,10.54,4.9,12.87,10.21,4.86,11.08-6.2,21.49-15.8,27.29,28.53.9,59,2.48,82.79,20.47,3.06,2.32,6.29,5.66,5.84,9.55-.29,2.48-2,4.39-3.8,6-10.19,9.29-23.06,14.53-35.82,19.2a648.91,648.91,0,0,1-149,35.33C886.2,453.17,880.67,450,880,444.63Z"/><path class="cls-2" d="M1176.91,517.26c-.08-.32-.16-.63-.25-1,30,31.63,47.39,76.52,46.79,120.63,23.13-42,15.11-99-10.57-141.56-24.58-40.74-63.47-71.52-103.46-92.71,2.87.78,33.56,7.89,33.59,9.16-.75-32.33,18.56-63.2,46.41-74.21s62.42-1.42,83.1,23c23.54,27.85,27.1,70.44,14.4,104-9.81,25.95-28.28,48.37-31.18,76.49-.79,7.7,0,16.4,5.14,22.08s15.81,5.35,18-2c-12.09-4.44-14.14-25.16-3.95-32.67s26.41-.77,31.67,11.78.41,27.88-9.44,35.87-23.58,9.37-35.94,6.07c-3.62,53.31-33.14,102.64-76.36,127.58,2.53-31.65-8.78-64.89-30-88.19-4.07-4.47-8.58-8.72-11.18-14.28-7.45-15.93,3.56-33.55,14.49-46C1168.85,549.13,1181,533.86,1176.91,517.26Z"/><path class="cls-4" d="M944.2,500.79s5,29.1,47,49.75,112.46,49.35,130.21,93.23-4.16,93.69-4.16,93.69-105.61-44.91-93.36-131c0,0,0-16.56,2.9-17.79S994,599,1006.78,659.7C1006.78,659.7,933.37,586.31,944.2,500.79Z"/><path class="cls-4" d="M1079,588.63c20.27,19.31,44.42,30.46,60.89,55.21,15.91,23.91,22,57.66,7.26,81,8.67-.6,15.92-7.62,19.16-16.15s3-18.31,1.33-27.57c-4.12-22.92-16.65-43.94-33.05-59.77C1120.09,607.37,1098.26,591.76,1079,588.63Z"/><path class="cls-4" d="M931,522.85c-1.21,90.3,43.83,181.92,114.91,233.76-39.78,20.55-89.92,17.95-129.49-6.71s-67.44-70.65-72-118.8c-1.58-16.87-.86-35.14-10.08-49.25-5.44-8.32-13.78-14.07-22.51-17.86-26.78-11.63-58.93-5.09-78.68,16-1.44,1.53-2.91,3.53-2.43,5.71.43,1.92,2.18,3.13,3.79,4.11,25.63,15.6,55.15,26.82,73.16,52-11.63-16.11-30.2-24.45-48.25-30.12-10.76-3.38-21.68-6.08-32.32-9.95a113,113,0,0,1-15.5-6.78c-7.17-3.88-4.55-6.23,0-11.57,14.83-17.47,36.27-27.85,58.41-30.27,25.45-2.77,51.74,4.43,74.87,17.56,5.08-17.28,5.6-36,10.14-53.44s26.3-39.54,42.62-44.27c-32.33,41.41-53.73,106.94-36.45,159.71,1.94,6,5.36,12.78,11.15,13.36,4.32.43,8-2.94,10.73-6.36,26.12-32.1,23.72-83,47.91-116.85Z"/><path class="cls-4" d="M1193.35,692.9l-.16.1c2.56-18.64-7.55-36.84-16.73-53.48s-18.13-36-13.14-53.94c4.66-16.72,20.74-28.65,21-46.3,8.56,6.14,12.89,17,16.28,27.39A388,388,0,0,1,1218.28,652c22.7-27.31,27.17-68.8,17.38-105.13s-32.14-68-57.83-94.44c-7.62-7.84-15.64-15.4-21.79-24.59-23-34.38,5.7-77.91,37.25-88.94,23.63-8.26,51.82-1.46,70.88,17.1,18.46,18,27.62,45.42,26.79,71.54s-10.9,50.84-25.52,71.12c9.14-29,18.38-59.95,11.13-90.27-2.41-10.09-6.76-19.95-13.75-27.34-12.62-13.34-32.22-16.54-48.82-11.93a65.39,65.39,0,0,0-38.69,30.56c-4,7-6.91,15.39-5,23.57,2.23,9.42,10.11,16,17.13,22.34,35.5,32,61.32,78.19,64.4,126.9S1232.92,671.07,1193.35,692.9Z"/><path class="cls-2" d="M941.4,333.78s-21.37,22,16,18.88,49.09-28.34,36.51-30.32c0,0,23.71,4.57,12.54,18.54s-19.3,23-46.84,25.54S925.46,344.27,941.4,333.78Z"/><path class="cls-5" d="M877.14,454.21c-25.06-12.56-49.87-29.42-63.95-55.06s-13.89-61.72,6.6-80c13-11.55,31.05-14.06,48.22-14.58,28.93-.88,58.45,2.61,86.54-3.8s55.67-25.71,61.92-55.8c8.58-41.39-24.37-79.42-47.92-115.07-5.77-8.73-8.31-25,1.41-25.64,3.4-.23,6.54,2.11,9.38,4.3,12.64,9.73,26.33,18.79,41.46,21.51s32-2.25,40-15.8,3-35.63-11.57-41.28-31.11,13.69-22.43,27.53c.23-10.78,18.64-9,20.4,1.7s-9.35,19.23-19.39,18-18.47-9-25.66-16.94-14.25-16.58-23.69-20.76c-15.88-7-35.7,2.9-40.26,20.18-6.17,23.39,12.93,47.44,12.84,72-.1,28.15-25.34,48-50.59,54.57s-52.32,4.26-77.4,11.41c-45.93,13.1-94.29,72.65-79.48,127.61C758.85,424.91,827,461.49,877.14,454.21Z"/><path class="cls-5" d="M905.52,186l.15-.66c-6,4.89-16.25-1.06-17.28-9.28s5.69-15.69,13.3-16.5S917,163.47,921.92,170s7.54,14.71,9.31,22.81c11.45-15,4.86-40.61-10.81-51.77s-36.82-9.33-52.4.53c-25.55,16.17-33.08,68.52,8.66,68.47C890,210,902.3,199.74,905.52,186Z"/></g><path class="cls-6" d="M663,263c-6.59-10-15.8-18.7-23.42-28-23.3-28.42-35-68.86-64.17-89.64,22.94.41,46.32,1.23,67.92,9.75s41.51,26.08,48.29,50.32c4.9,17.5,2.78,37.31,10.72,53.39,5.49-22.91,10.8-48.23,1.3-69.47-7.37-16.47-22.36-27.09-37.58-34.46-36-17.45-82.84-26-121.9-22.67,20.1,26.56,37.24,54.32,54.9,83.12,18.13,29.58,41.09,58.4,72.15,68.19A49.58,49.58,0,0,0,663,263Z"/><path class="cls-7" d="M741.32,321.63l.16.07c-16.72,3.49-35.59,2.12-48.42-10.24-8.46-8.15-13.2-20-16.67-31.8C670,258,667,235.16,658.84,214.23c-7.41-19.13-20.37-37.69-38.92-44.23,22.74,5.82,43.29,20.87,56.39,42.33,11.36,18.6,16.79,40.72,25.09,61.21S722.27,314.14,741.32,321.63Z"/><path class="cls-2" d="M769.63,465.58c2.51-11.51,6.82-22.48,13.63-31.54,9.78-13,25.34-21.41,40.44-18.76s28.33,18.1,27.36,35c-.9,15.73-12.41,27.75-22.5,38.87-10.3,11.35-20,23.73-25.92,38.43s-7.5,32.13-1.53,46.79C810.34,597,834,607,855.34,614.75c-15.37-8.55-32-20.17-35.2-38.85-2-11.78,1.91-23.9,7.43-34.22,8.43-15.74,20.45-28.66,31.8-42s22.4-27.57,28.17-44.72,5.37-37.85-4.86-52.23C873,389.22,856.59,383.7,841,383.1c-26.39-1-53,10.44-71.81,30.93l-1.13-107.51L750.6,316.74a13.65,13.65,0,0,0-5,4.18c-1.6,2.52-1.63,5.83-1.6,8.91q.64,60.12,1.3,120.22c0,1.9-35.62,7.71-39.1,8.32q-20.1,3.51-40.38,5.45a444.19,444.19,0,0,1-81,.42,373.57,373.57,0,0,1-79.47-15.69c-1.64-.51-6-2.94-7.54-1.4s-.31,7.55-.18,9.53a143.92,143.92,0,0,0,2.75,20.07,141.26,141.26,0,0,0,13.61,37.59,129.87,129.87,0,0,0,9.65,15.34c17.24,23.53,42.12,40.06,69,45.86l-6.07,6.26a125.35,125.35,0,0,0,88,.32,17.22,17.22,0,0,0-8-7.49,91.83,91.83,0,0,0,48.35-27.81c-21,19.09-50.34,22.58-77.4,19.73-25.08-2.64-50.13-10.23-71.18-25.55s-37.8-38.91-43-66.18a336.41,336.41,0,0,0,221.89-4c0,64.82.06,138,.09,202.81,7.56-3.1,15.72-6.75,19.7-14.51,2.82-5.5,3-20.47,3.13-26.79.63-33.6,1.26-67.22-.24-100.78-.75-16.9-2-33.86-.49-50.69A126.7,126.7,0,0,1,769.63,465.58Z"/><path class="cls-2" d="M1000.69,557.37l0-.44c-15.9,7.31-35.87,3.69-47.72-10.13s-13.69-37.39-2.94-52.27c8.92-12.35,23.91-17.07,38.09-19s28.85-1.72,42.24-7.24a260.37,260.37,0,0,0,9.73,110.82l29.52-16.24c-10.92-12.16-17.13-28.78-19.66-45.68s-1.62-34.22.07-51.25a12.51,12.51,0,0,1,1.5-5.66c1.14-1.72,3-2.6,4.79-3.5A59,59,0,0,0,1079.5,435c3.34-5.48,5.93-12.51,3.56-18.58a13.42,13.42,0,0,0-12.42-8.18c-5.1,0-10,2.41-14.21,5.55-11,8.19-18.78,21.62-20.83,36.15-.31,2.21-.59,4.65-2.06,6.19a7.86,7.86,0,0,1-4.06,1.91c-22,5.33-44.79,5.55-66.47,12.09-17.87,5.4-36.14,16.36-45.84,34.48-10.53,19.66-1,41.59,15.33,53.64,12.8,9.48,28.59,12.75,44,13.4,5.13.22,10.43.14,15.16-2.06S1000.24,562.84,1000.69,557.37Z"/><path class="cls-2" d="M1188.16,558.74c0-.11,0-.22,0-.33-13.44,3.2-28.08,1.18-39.74-6.87a48.15,48.15,0,0,1-20.29-37.6c-.38-15.2,7.75-30.6,20.43-36.49,7.93-3.69,16.91-3.63,25.4-2.06,11.72,2.18,23.47,7.53,31,17.72,2,2.67,3.68,6.14,2.76,9.42-.61,2.15-2.22,3.74-3.76,5.21l-14.31,13.65,10.93,5.41a110.46,110.46,0,0,1,52.12-28.38C1252.2,526,1252,555,1264.23,579L1292,564.32A136.87,136.87,0,0,1,1274.55,487c20.5-8.56,34-34.13,30.56-58.08-1.51-10.63-9-22.49-18.52-20.11-3.84,1-6.9,4.11-9.57,7.33-15.72,19-24.45,44.86-23.82,70.6l-19.42,7.2c-28-32.35-76.91-39.41-111.51-16.11-27.58,18.59-31.15,57.35-3.1,78.28,13.86,10.34,31.1,13.38,47.79,14.36,4.43.26,9,.36,13.14-1.37S1187.73,563.48,1188.16,558.74Z"/><path class="cls-2" d="M1283.5,410.64a37.64,37.64,0,0,1,.13-8.63c2.46-15.48,19.82-21.05,34-21.95,13.32-.85,27.81,0,38.21,9.23S1369,419,1358,427.35c-4.23,3.21-9.78,4.26-13.26,8.43-2.93,3.51-3.76,8.53-4.39,13.26a423.42,423.42,0,0,0,2.75,128.81l31-14.55a222.54,222.54,0,0,1-8.37-105.15c1.09-6.73,2.61-13.68,6.58-18.92,5.56-7.34,15-10.17,20.13-17.9,6-9,3.82-22.43-2.65-31s-16.25-13.26-26-16.35a118.41,118.41,0,0,0-70.7-.28c-18.68,5.77-57.18,32.83-30.83,56.44,5.64,5.05,15.18,5.19,19.37-1.36C1285,423.63,1284,417.13,1283.5,410.64Z"/><rect class="cls-2" x="903.39" y="431.87" width="487.95" height="10.69"/><path class="cls-7" d="M580.72,441.52c38.12-8.43,79.56-14.4,114.32,4.84a257,257,0,0,1-164.68-8.63c18.29-16.57,43.53-19.32,67.15-20.62,47.31-2.6,95.61-2,140.8,13.65-19.81-12.59-42.82-17.5-65.53-20.27a403.85,403.85,0,0,0-124.64,4.18c-14.49,2.77-31.12,6-42.86,16.3,5.47,13.85,29.22,17.7,41.69,20.18a390.16,390.16,0,0,0,125.75,4.39c12-1.54,24.55-3.89,34.29-11.87-9.54-9-22.52-12.05-35-13.54a193.09,193.09,0,0,0-91.35,11.41Z"/><text class="cls-8" transform="translate(1178.3 676.02) scale(1.16 1)">lrof</text><text class="cls-9" transform="translate(778.86 656.4) scale(1.19 1)">#<tspan class="cls-10" x="27.13" y="0">Chai is the new high</tspan></text></svg>