<svg id="Layer_1" data-name="Layer 1" xmlns="http://www.w3.org/2000/svg" viewBox="0 0 1080 1080"><defs><style>.cls-1{fill:#86746a;}.cls-2{fill:#e6e6e6;}.cls-3{fill:#d87755;}.cls-4{fill:#5ba4b7;}.cls-5{fill:#033246;}.cls-6{fill:#054664;}.cls-7{fill:#34a853;}.cls-8{fill:#4285f4;}.cls-9{fill:#ea4335;}.cls-10{fill:#fbbc05;}.cls-11{fill:#f58c5d;}.cls-12{fill:#fbc596;}.cls-13{fill:#572001;}.cls-14{fill:#661c03;}.cls-15{fill:#fffeff;}.cls-16{fill:#1e141f;}.cls-17{fill:#cd744c;}.cls-18{fill:#fff;}.cls-19{fill:#d6401b;}.cls-20{fill:#d17745;}</style></defs><title>Mascott123</title><ellipse class="cls-1" cx="550.66" cy="772.87" rx="167.64" ry="21.59"/><path class="cls-2" d="M619.88,726.17c-5.29,10.38-4.52,33-5.68,42.92A345.29,345.29,0,0,0,674,776.36a13.83,13.83,0,0,0,4.45-.34,12,12,0,0,0,5.3-3.93,33.79,33.79,0,0,0,8.6-21.52,27.06,27.06,0,0,0-9.24-21c-5.85-4.89-13.58-6.72-21-8.31-10-2.14-31.62-7.19-40.07,1.77A13.08,13.08,0,0,0,619.88,726.17Z"/><path class="cls-3" d="M523.94,417.75c-3.75,4.12.18,31.63.3,37.27a123.54,123.54,0,0,0-31.32,14.24c-1.72,1.1-3.58,2.49-3.83,4.52-.4,3.2,3.24,5.23,6.27,6.29a338.6,338.6,0,0,0,35.73,10.25c5,1.14,10.17,2.18,15.3,1.65a51.58,51.58,0,0,0,9.55-2.25l35.28-10.78a33.19,33.19,0,0,0-26.46-24.47l-1.14-30.57c-6.31-1.06-34.73-9.92-39.43-6.38A1.34,1.34,0,0,0,523.94,417.75Z"/><path class="cls-4" d="M477.81,544.17l0,150.58c21,8.12,42.83,14.82,65.3,16.58s45.75-1.66,65.39-12.74a10.45,10.45,0,0,0,4.14-3.49c1-1.66,1-3.7,1-5.63l.05-145.35c19.94,34.74,17.53,77.72,11.53,117.36-1.28,8.43-2.68,17.18-.32,25.38,10.41-9.19,12.69-24.33,19.21-36.6,6.66-12.53,18-22.44,22.67-35.86,3.89-11.28,2.53-23.63.84-35.45-3.4-23.93-7.94-47.74-15-70.87-3.08-10.16-6.8-20.45-13.79-28.43-14.66-16.74-39.32-19.16-61.48-20.43a31.83,31.83,0,0,1-59.83-.4c-.88-2.45-23.65,1.42-26.28,1.92a114.14,114.14,0,0,0-28.2,9.14c-16.12,7.75-21,31.1-25.19,47.18a755.7,755.7,0,0,0-16.18,78.42,29.33,29.33,0,0,0-.39,9.29c.57,3.31,2.24,6.32,3.9,9.23q12.13,21.32,26,41.58c4.13,6,8.71,12.29,15.42,15.19q.75-48.64,4.82-97.14C472.33,563.55,473.35,553.22,477.81,544.17Z"/><path class="cls-2" d="M461.74,560.63H630.32a10,10,0,0,1,9.89,11.22L625.92,687.21H469.18L451.59,572.5A10.29,10.29,0,0,1,461.74,560.63Z"/><path class="cls-5" d="M467.89,653c-1.61-.48-3.23-.92-4.87-1.29C448.74,648.47,424.5,649,415,662s-7.3,33.94,1.41,46.41c10.66,15.26,29.71,21.69,47.47,27.11,49.51,15.09,99.38,29.52,150.49,37.59l6.72-45.16c-24.27-6.87-50.48-9.22-71.81-22.73-7-4.45-13.29-10-19.76-15.21a299,299,0,0,0-36.3-25.06C485.19,660.15,476.81,655.72,467.89,653Z"/><path class="cls-6" d="M481.76,736.25c-3.16,7.83,3.49,27.83,4.92,35.88,49.22-9.94,98.43-20.3,146.49-34.87,16-4.85,32.42-10.49,44.51-22.07s18.57-30.72,10.82-45.57c-7.61-14.62-26.3-20.3-42.6-18.16-23.73,3.11-43.52,18.89-63.15,32.63a388.85,388.85,0,0,1-63.7,36.57q-8.38,3.75-16.95,7c-4.77,1.82-15.39,3.18-19,6.51A5.44,5.44,0,0,0,481.76,736.25Z"/><path class="cls-2" d="M480.85,740A31.77,31.77,0,0,0,473.6,736c-9.58-4.15-19.42-8-29.76-9.4-16.63-2.23-40.39,3.56-38.64,24.8.61,7.33,4.09,14.09,7.87,20.39a6.64,6.64,0,0,0,6.7,4.23,216.91,216.91,0,0,0,65.65-5.92c1.14-5.09,2.29-10.25,2.06-15.46s-2-10.56-5.86-14C481.37,740.41,481.12,740.19,480.85,740Z"/><path class="cls-7" d="M547.35,602.94l-7.73,11.8h8.75l-3.31,5.37H529L539.11,605a5,5,0,0,1,4.19-2.1Z"/><path class="cls-8" d="M549.55,604.55l-2.19,3.14,2.86,4.45,3.41-5.08-1.8-2.52A1.44,1.44,0,0,0,549.55,604.55Z"/><path class="cls-8" d="M527,622.41h7.33l-2.88,4.47h-4a1.66,1.66,0,0,1-1.67-2.41Z"/><path class="cls-9" d="M550.83,626.71l4.68-6.9,8.09,12.3,1.71-2.44a4.57,4.57,0,0,0,.06-5.26l-10.11-15.08-8.27,12Z"/><path class="cls-10" d="M526.06,629.1l1.82,2.88a5.37,5.37,0,0,0,4.58,2.37h20.2l-8-11.94H538l4.2,6.63Z"/><path class="cls-8" d="M552.22,628.9l6.58.26,1.94,2.93a1.51,1.51,0,0,1-1.49,2.26h-3.52Z"/><g id="Ears"><path id="Left_ear" data-name="Left ear" class="cls-11" d="M492.78,356.42a3.76,3.76,0,0,0-2.26.22c-2.52.79-5.38,1.88-6.25,4.31a5.81,5.81,0,0,0-.07,3.23c.74,3.35,3.12,6.19,3.92,9.53.85,3.53-.14,7.33.87,10.82,1.33,4.6,5.88,7.71,10.57,9.19a2.59,2.59,0,0,0,1.45.15c.78-.23,1.15-1.07,1.41-1.81,1.81-5.13,6.67-15.08,5.65-20.49-.9-4.74-10.35-10.83-14.06-14.29A3.61,3.61,0,0,0,492.78,356.42Z"/><path id="right_ear" data-name="right ear" class="cls-11" d="M593.35,358.87a5.44,5.44,0,0,1,.81-.78c6.48-5.21,9.62,3.52,8.05,8.37-.76,2.35-1.91,4.58-2.54,7-1,3.82-.65,7.86-1.5,11.71s-3.54,7.82-7.57,8.27a4.63,4.63,0,0,1-4-1.36,5.41,5.41,0,0,1-1.07-3.12,27.09,27.09,0,0,1,.67-7.61,152.8,152.8,0,0,1,5-17.9A13.06,13.06,0,0,1,593.35,358.87Z"/></g><path class="cls-12" d="M493.79,346a278.31,278.31,0,0,0,4,38.17c2.45,14.6,5.92,29.53,14.82,41.54s24.51,20.46,39.4,17.19c8.66-1.9,16.11-7.49,21.49-14.33s8.89-14.87,11.81-23a199.61,199.61,0,0,0,11.36-54.69c.65-10,.19-16.4-3.84-25.52q-6.33-14.33-12.65-28.66a5.62,5.62,0,0,0-2.06-2.82,5.91,5.91,0,0,0-3.13-.46l-51.81,1.74c-6.6.22-13.64.59-18.94,4.4-6.61,4.75-8.56,13.39-9.45,21.31A181.71,181.71,0,0,0,493.79,346Z"/><path id="Hair" class="cls-13" d="M503.88,312.74c.07-.14.15-.28.23-.42a14.14,14.14,0,0,1,10.47-6.54,19.62,19.62,0,0,1,12.34,2.83c5.6,3.33,9.92,9,16.34,10.41,5.53,1.19,11.12-1.15,16.69-2.12,9.69-1.7,20.45,1.2,26.84,8.46,6,6.83,7.54,16.39,7.25,25.36s-2.14,17.87-1.85,26.84c-.13-3.91,2.7-9.36,3.56-13.29q1.57-7.17,2.44-14.45a149.82,149.82,0,0,0,.62-29.26c-1.29-16.8-10.46-31.2-25.86-39.6-11-6-24-8.32-36.6-7.51-8.71.55-17.62,2.69-24.4,8-5,3.9-8.59,9.34-14,12.6-2.37,1.42-5.08,2.42-7,4.35-3,2.95-3.61,7.39-4.07,11.49-1.57,14.06-3.13,28.41,0,42.23a64.68,64.68,0,0,0,10,22.64c1.69-7.23-.64-14.79.11-22.17s4.62-14.37,5.22-21.84C502.65,324.69,501,318.11,503.88,312.74Z"/><g id="brows"><path class="cls-13" d="M505.19,338.81c2.9-2.12,5-5.52,8.53-6.37a13.38,13.38,0,0,1,2.83-.28l11.3-.3,5.65-.16c1.09,0,1.57-.28,2,.55a5.29,5.29,0,0,1-.15,2.67,3.76,3.76,0,0,1-1.94,2.56,5.87,5.87,0,0,1-2.13.38Q518.26,338.55,505.19,338.81Z"/><path class="cls-13" d="M552.24,325.06a5,5,0,0,0,1.23,5.24c1.46,1.4,3.61,1.84,5.63,2.2,7.5,1.36,15.27,2.71,21.58,6.88-.42-.28-.65-2.37-.84-2.94a10.26,10.26,0,0,0-1.42-2.8,13.09,13.09,0,0,0-5.16-3.89c-3.09-1.38-6.5-1.89-9.8-2.69-3.7-.89-7.39-2.17-11.2-2Z"/></g><g id="Eyes"><g id="Left_eye" data-name="Left eye"><path class="cls-14" d="M507.86,364.55a8.08,8.08,0,0,1,2.78-7.39,13.14,13.14,0,0,1,7.77-3c5.4-.37,11.14,1,14.43,5.45a4,4,0,0,1,1,2.52,3.24,3.24,0,0,1-1.87,2.53,8.85,8.85,0,0,1-3.23.78c-6.94.71-14,0-20.86-.9Z"/><path class="cls-11" d="M507.83,366.91l0,0a1.08,1.08,0,0,0-.2.61c-.38,3.69,2.84,7.06,6.52,8.08s7.64.19,11.26-1a15.38,15.38,0,0,0,5.41-2.82c1.27-1.13,2.81-3.4,2.25-5.2s-2.87-2.26-4.49-2.4c-6.72-.59-13.43.92-20,2.42A1.47,1.47,0,0,0,507.83,366.91Z"/><path class="cls-15" d="M508,364.66a6.68,6.68,0,0,1,.66-1.59,10.87,10.87,0,0,1,5.4-4.34,19.67,19.67,0,0,1,16.43.82c1.62.85,3.63,2.11,4.47,3.76s-.32,3.65-1.64,4.95a16.77,16.77,0,0,1-8.75,4.3,28,28,0,0,1-9.91-.19c-2.17-.39-4.48-1.06-5.82-2.77A5.62,5.62,0,0,1,508,364.66Z"/><path class="cls-16" d="M528.61,365.18a7.81,7.81,0,0,1-1.23,4.41,7.46,7.46,0,0,1-6.69,3.33,7.75,7.75,0,0,1-6.56-5.64,8,8,0,0,1,1.48-7.11,7.7,7.7,0,0,1,6.9-2.65C526.36,358.1,528.56,361.64,528.61,365.18Z"/></g><g id="Right_Eye" data-name="Right Eye"><path class="cls-11" d="M580.54,367.68a1.59,1.59,0,0,1,.42,1.12c0,1.49-1.16,3.16-2.21,4.14a12.9,12.9,0,0,1-5,2.68,17,17,0,0,1-9.71.32,10.83,10.83,0,0,1-7.12-6.13,3.74,3.74,0,0,1,0-3.2c.77-1.33,2.58-1.64,4.15-1.7,5.71-.25,11.38.82,17,1.88A4.72,4.72,0,0,1,580.54,367.68Z"/><path class="cls-14" d="M553.77,364.43a1.58,1.58,0,0,1,0-1.13c.83-2.93,1.86-6.14,4.52-7.76a11.64,11.64,0,0,1,4.62-1.33,23.88,23.88,0,0,1,10.14.5,11.74,11.74,0,0,1,7,5.41c1.34,2.48,2.12,6.54.09,8.86-1.73,2-4.83,2-7.49,1.72a57.29,57.29,0,0,1-18.2-5.75,1.5,1.5,0,0,1-.63-.47Z"/><path class="cls-15" d="M553.05,365.27a2.11,2.11,0,0,1,.65-.95c2.82-2.9,5.86-5.93,9.84-7,3.76-1,7.8,0,11.3,1.67,4.7,2.24,9.39,6.47,4.67,11.24A13.73,13.73,0,0,1,570,374a24.36,24.36,0,0,1-10.19-2.42c-2.48-1.12-4.92-2.59-6.33-4.86A1.87,1.87,0,0,1,553.05,365.27Z"/><path class="cls-16" d="M574.34,365.18a7.88,7.88,0,0,1-1.17,4.31,7.47,7.47,0,0,1-6.76,3.42,7.72,7.72,0,0,1-6.47-5.53,7.94,7.94,0,0,1,1.34-7.08,7.64,7.64,0,0,1,6.77-2.79C572,358,574.28,361.59,574.34,365.18Z"/></g></g><g id="Mouth"><path class="cls-17" d="M516.36,405.4c17.21,5,35.85,6.74,53.14,2,.86-.23,3-1.1,3.54-.1s-1.44,2.86-2.06,3.45a96.56,96.56,0,0,1-13.07,10.06,30.43,30.43,0,0,1-7.45,4,20.83,20.83,0,0,1-14-1A41.68,41.68,0,0,1,524.7,416C521.29,413,518.06,409.57,516.36,405.4Z"/><path class="cls-18" d="M520,408.38c.74.7,4.59.93,5.54,1.11q3,.54,6,.93a114.37,114.37,0,0,0,24.81.47c2-.18,4-.42,6-.7,1.78-.26,4.18-1.11,5.91-.89,0,1.37-1.36,2.46-2.37,3.27a88.19,88.19,0,0,1-10,7c-3,1.78-6.17,3.42-9.65,3.79-4,.42-8.07-.92-11.66-2.75a41.89,41.89,0,0,1-14.59-12.27A.13.13,0,0,0,520,408.38Z"/></g><path id="Nose" class="cls-19" d="M533,388.68a5.88,5.88,0,0,0,1,3.48,2.15,2.15,0,0,0,.85.79c1,.41,1.95-.39,2.92-.76a3.69,3.69,0,0,1,3.43.47c.8.6,1.32,1.52,2.19,2a2.93,2.93,0,0,0,2.87,0c.92-.52,1.47-1.49,2.35-2.05a3.27,3.27,0,0,1,3-.23c.46.2.93.53,1.43.42a1.54,1.54,0,0,0,.84-.65,7.05,7.05,0,0,0,1.47-4.24c0,.9,1,1.83,1.29,2.7a2.84,2.84,0,0,1-.56,2.76,7.27,7.27,0,0,1-3.16,1.84,35.49,35.49,0,0,1-5.47,1.53,9,9,0,0,1-4.32,0c-1.94-.6-3.57-2.3-5.61-2.18a15.46,15.46,0,0,1-2.84.42,3.45,3.45,0,0,1-2.34-1.85,4.32,4.32,0,0,1-.64-2.41A2.58,2.58,0,0,1,533,388.68Z"/><path class="cls-20" d="M572.6,404.12s3.72,2.39,2.48,5.39C575.08,409.51,578.79,405.32,572.6,404.12Z"/><path class="cls-20" d="M516.33,402.32s-3.09,3.59-1.86,6l-.62-1.2"/></svg>